<svg aria-hidden="true" style="position: absolute; width: 0; height: 0; overflow: hidden;" version="1.1"
     xmlns="http://www.w3.org/2000/svg" xmlns:xlink="http://www.w3.org/1999/xlink">
    <defs>
        <symbol id="icon-heart" width="24" height="23" viewBox="0 0 34 32" x="0" y="0">
            <path fill="#ff6b08"
                  d="M17.231 31.705l-2.412-2.412c-8.96-7.926-14.818-13.268-14.818-19.815 0-5.342 4.135-9.477 9.477-9.477 2.929 0 5.858 1.378 7.754 3.618 1.895-2.24 4.825-3.618 7.754-3.618 5.342 0 9.477 4.135 9.477 9.477 0 6.548-5.858 11.889-14.818 19.815l-2.412 2.412z"></path>
        </symbol>
    </defs>
</svg>
<svg version="1.1" xmlns="http://www.w3.org/2000/svg" width="32" height="32" viewBox="0 0 32 32">
<title>cross</title>
<path d="M31.708 25.708c-0-0-0-0-0-0l-9.708-9.708 9.708-9.708c0-0 0-0 0-0 0.105-0.105 0.18-0.227 0.229-0.357 0.133-0.356 0.057-0.771-0.229-1.057l-4.586-4.586c-0.286-0.286-0.702-0.361-1.057-0.229-0.13 0.048-0.252 0.124-0.357 0.228 0 0-0 0-0 0l-9.708 9.708-9.708-9.708c-0-0-0-0-0-0-0.105-0.104-0.227-0.18-0.357-0.228-0.356-0.133-0.771-0.057-1.057 0.229l-4.586 4.586c-0.286 0.286-0.361 0.702-0.229 1.057 0.049 0.13 0.124 0.252 0.229 0.357 0 0 0 0 0 0l9.708 9.708-9.708 9.708c-0 0-0 0-0 0-0.104 0.105-0.18 0.227-0.229 0.357-0.133 0.355-0.057 0.771 0.229 1.057l4.586 4.586c0.286 0.286 0.702 0.361 1.057 0.229 0.13-0.049 0.252-0.124 0.357-0.229 0-0 0-0 0-0l9.708-9.708 9.708 9.708c0 0 0 0 0 0 0.105 0.105 0.227 0.18 0.357 0.229 0.356 0.133 0.771 0.057 1.057-0.229l4.586-4.586c0.286-0.286 0.362-0.702 0.229-1.057-0.049-0.13-0.124-0.252-0.229-0.357z"></path>
</svg>
<svg version="1.1" xmlns="http://www.w3.org/2000/svg" width="32" height="32" viewBox="0 0 32 32">
<title>envelop</title>
<path d="M29 4h-26c-1.65 0-3 1.35-3 3v20c0 1.65 1.35 3 3 3h26c1.65 0 3-1.35 3-3v-20c0-1.65-1.35-3-3-3zM12.461 17.199l-8.461 6.59v-15.676l8.461 9.086zM5.512 8h20.976l-10.488 7.875-10.488-7.875zM12.79 17.553l3.21 3.447 3.21-3.447 6.58 8.447h-19.579l6.58-8.447zM19.539 17.199l8.461-9.086v15.676l-8.461-6.59z"></path>
</svg>
<svg version="1.1" xmlns="http://www.w3.org/2000/svg" width="32" height="32" viewBox="0 0 32 32">
<title>facebook</title>
<path d="M19 6h5v-6h-5c-3.86 0-7 3.14-7 7v3h-4v6h4v16h6v-16h5l1-6h-6v-3c0-0.542 0.458-1 1-1z"></path>
</svg>
<svg version="1.1" xmlns="http://www.w3.org/2000/svg" width="27" height="32" viewBox="0 0 27 32">
<title>fox</title>
<path d="M7.35 0.885c-0.143 0.338-0.169 3.148-0.065 4.774 0.052 0.78 0.26 2.081 0.442 2.888 0.182 0.793 0.338 1.795 0.351 2.211 0 0.637 0.026 0.702 0.13 0.429 0.156-0.377 0.104-0.911-0.273-2.602-0.247-1.093-0.494-2.953-0.299-2.289 0.039 0.143 0.156 0.338 0.26 0.455 0.182 0.169 0.195 0.169 0.117-0.091-0.182-0.546 0.221-0.247 0.741 0.559 0.611 0.95 0.924 1.275 0.429 0.455-0.976-1.6-1.548-3.668-1.483-5.359 0.026-0.859 0.026-0.872 0.286-0.65 0.234 0.195 0.234 0.182-0.026-0.195-0.156-0.221-0.286-0.468-0.286-0.533 0-0.247-0.234-0.286-0.325-0.052z"></path>
<path d="M14.192 2.289c-0.156 0.533-0.429 1.301-0.598 1.678-0.351 0.754-0.39 0.898-0.208 0.78 0.065-0.039 0.221 0.065 0.325 0.221 0.143 0.195 0.208 0.234 0.208 0.104 0-0.169 0.026-0.169 0.117-0.013 0.091 0.143 0.143 0.104 0.221-0.13l0.104-0.312 0.091 0.325c0.052 0.195 0.091-0.182 0.104-0.95 0.013-0.702 0.078-1.366 0.156-1.509 0.156-0.247 0.052-1.184-0.13-1.184-0.052 0-0.234 0.442-0.39 0.989z"></path>
<path d="M8.911 2.719c0.429 0.468 0.859 0.924 0.95 1.015 0.078 0.104 0.156 0.143 0.156 0.078s-0.429-0.52-0.937-1.015l-0.95-0.911 0.78 0.833z"></path>
<path d="M10.537 4.501c0 0.078 0.091 0.247 0.208 0.39 0.182 0.234 0.182 0.234 0.039-0.078-0.182-0.403-0.247-0.468-0.247-0.312z"></path>
<path d="M11.291 5.854c0.117 0.273 0.234 0.455 0.26 0.39 0.039-0.117-0.325-0.911-0.429-0.911-0.026 0 0.052 0.234 0.169 0.52z"></path>
<path d="M12.202 6.53c-0.26 0.416-0.377 0.754-0.247 0.754 0.065 0 0.143-0.104 0.195-0.234 0.039-0.117 0.13-0.351 0.208-0.52 0.065-0.156 0.104-0.286 0.078-0.286s-0.13 0.13-0.234 0.286z"></path>
<path d="M11.616 7.089c0 0.351 0.026 0.494 0.052 0.286 0.026-0.195 0.026-0.481 0-0.65-0.026-0.156-0.052 0-0.052 0.364z"></path>
<path d="M13.268 6.946c0 0.026 0.117 0.078 0.26 0.117s0.26 0.013 0.26-0.052c0-0.065-0.117-0.117-0.26-0.117s-0.26 0.026-0.26 0.052z"></path>
<path d="M7.675 7.076c0 0.026 0.091 0.117 0.195 0.208 0.169 0.143 0.182 0.13 0.117-0.052s-0.312-0.299-0.312-0.156z"></path>
<path d="M13.984 7.141c-0.078 0.065-0.247 0.143-0.39 0.182-0.143 0.026 0.13 0.039 0.598 0.013 0.481-0.013 1.080 0.013 1.34 0.078 0.663 0.143 0.455-0.065-0.234-0.247-0.702-0.169-1.158-0.182-1.314-0.026z"></path>
<path d="M9.496 8.325c0.013 0.039 0.091 0.39 0.195 0.78l0.195 0.715-0.052-0.624c-0.026-0.351-0.117-0.702-0.195-0.78s-0.143-0.117-0.143-0.091z"></path>
<path d="M12.15 9.262l-0.247 0.286 0.377-0.234c0.364-0.234 0.364-0.234 0.767 0.143 0.377 0.351 0.377 0.195-0.013-0.26-0.26-0.299-0.585-0.286-0.885 0.065z"></path>
<path d="M15.948 9.496c-0.052 0.312-0.052 0.585-0.013 0.624s0.065-0.052 0.065-0.182c0-0.143 0.065-0.325 0.143-0.403 0.091-0.091 0.104-0.221 0.013-0.364-0.091-0.182-0.13-0.117-0.208 0.325z"></path>
<path d="M16.286 10.406c0 0.247 0.026 0.351 0.065 0.221 0.026-0.117 0.026-0.325 0-0.455-0.039-0.117-0.065-0.013-0.065 0.234z"></path>
<path d="M13.528 10.263c0 0.078 0.052 0.169 0.13 0.208s0.091-0.013 0.052-0.117c-0.091-0.234-0.182-0.273-0.182-0.091z"></path>
<path d="M16.156 11.33c-0.039 0.325-0.559 0.924-0.741 0.846-0.091-0.026-0.221 0.078-0.299 0.247-0.156 0.338-0.091 0.351 1.145 0.325 0.429 0 0.429 0 0.195 0.195-0.182 0.156-0.208 0.234-0.091 0.273 0.299 0.13 0.156 0.325-0.429 0.585-0.572 0.247-1.847 0.364-2.133 0.182-0.078-0.039-0.143-0.026-0.143 0.039 0 0.078 0.156 0.169 0.351 0.221 0.65 0.156 1.86 1.145 2.198 1.782 0.104 0.195 0.195 0.663 0.195 1.041l0.013 0.689 0.104-0.52c0.169-0.794-0.299-1.717-1.223-2.433l-0.728-0.559 0.624-0.078c0.911-0.117 1.548-0.442 1.847-0.924 0.351-0.585 0.338-0.624-0.247-0.624-0.442 0-0.52-0.039-0.494-0.26 0.013-0.143 0.052-0.26 0.091-0.26s0.195-0.091 0.338-0.208c0.234-0.195 0.234-0.195-0.039-0.065-0.39 0.195-0.403 0.195-0.468-0.286-0.026-0.221-0.065-0.325-0.065-0.208z"></path>
<path d="M8.65 11.46c-0.052 0.078-0.065 0.156-0.026 0.195 0.026 0.039 0.091-0.026 0.13-0.143 0.091-0.221 0.013-0.26-0.104-0.052z"></path>
<path d="M11.98 12.072c-0.416 0.039-0.429 0.052-0.169 0.234 0.195 0.13 0.598 0.182 1.379 0.169 0.611-0.013 1.119-0.039 1.119-0.065s-0.13-0.117-0.286-0.208c-0.299-0.156-1.158-0.208-2.042-0.13z"></path>
<path d="M8.195 12.189c0 0.208 0.728 0.715 1.886 1.34 1.821 0.976 2.198 1.353 2.393 2.354l0.117 0.572 0.013-0.494c0.013-0.624-0.299-1.327-0.754-1.639-0.182-0.13-0.937-0.546-1.665-0.911-0.728-0.377-1.47-0.833-1.652-1.015s-0.338-0.273-0.338-0.208z"></path>
<path d="M12.371 16.728c0 0.143 0.039 0.182 0.078 0.078 0.039-0.091 0.026-0.208-0.013-0.247-0.039-0.052-0.078 0.026-0.065 0.169z"></path>
<path d="M15.857 18.914c-0.091 0.247-0.208 0.429-0.247 0.403-0.052-0.039-0.208 0.065-0.338 0.234l-0.247 0.286 0.624-0.52-0.078 0.26c-0.039 0.143-0.247 0.754-0.468 1.366s-0.403 1.21-0.403 1.327c0 0.13-0.052 0.234-0.117 0.234-0.052 0-0.169 0.195-0.247 0.416-0.117 0.416-0.13 0.39-0.169-0.351-0.026-0.676-0.039-0.715-0.078-0.234-0.026 0.312-0.104 0.559-0.182 0.559-0.065 0-0.117-0.065-0.117-0.143 0-0.104-0.078-0.091-0.221 0.026-0.143 0.13-0.182 0.13-0.117 0.013 0.052-0.078 0.039-0.156-0.026-0.156-0.078 0-0.169 0.104-0.221 0.221-0.078 0.208-0.117 0.195-0.39-0.13-0.195-0.221-0.286-0.442-0.234-0.572 0.052-0.143 0.039-0.182-0.065-0.117s-0.156 0-0.156-0.169c0-0.143-0.065-0.299-0.143-0.351-0.169-0.104-0.143-0.026 0.481 1.769 0.234 0.676 0.403 1.249 0.39 1.275-0.104 0.091-0.468-0.156-0.533-0.351-0.039-0.13-0.221-0.377-0.416-0.546l-0.338-0.312 0.299 0.416c0.169 0.234 0.286 0.455 0.247 0.481-0.026 0.039-0.429-0.026-0.898-0.117-0.468-0.104-1.002-0.182-1.197-0.195-0.442 0-0.455-0.078-0.026-0.689 0.494-0.728 0.312-0.715-0.234 0.013-0.429 0.585-0.911 0.82-1.080 0.533-0.052-0.065-0.013-0.117 0.052-0.117 0.078 0 0.143-0.065 0.143-0.13 0-0.234-0.286-0.13-0.351 0.13-0.039 0.156-0.169 0.26-0.351 0.247-0.195 0-0.221-0.026-0.078-0.091 0.104-0.052 0.208-0.182 0.234-0.286 0.039-0.156 0.013-0.156-0.117-0.039-0.078 0.078-0.234 0.117-0.338 0.078-0.13-0.052-0.169 0-0.143 0.156 0.026 0.169-0.065 0.273-0.26 0.312-0.169 0.039 0.533 0.078 1.561 0.078 1.626 0.013 2.016 0.052 3.096 0.364 1.249 0.351 2.198 0.429 2.667 0.208 0.195-0.091 0.156-0.104-0.156-0.039-0.403 0.065-0.429 0.052-0.364-0.299 0.026-0.195 0.091-0.585 0.13-0.859 0.091-0.572 0.195-0.598 0.663-0.13 0.195 0.195 0.325 0.26 0.286 0.156-0.026-0.104-0.234-0.299-0.455-0.442l-0.39-0.26 0.442-1.47c0.234-0.806 0.546-1.769 0.689-2.146 0.143-0.364 0.234-0.689 0.208-0.715s-0.13 0.156-0.221 0.416z"></path>
<path d="M14.14 19.603c-0.052 0.039-0.091 0.234-0.078 0.416 0.013 0.338 0.013 0.325 0.13-0.039 0.117-0.403 0.091-0.533-0.052-0.377z"></path>
<path d="M16 22.231c0 0.065 0.091 0.182 0.195 0.273s0.195 0.273 0.195 0.416c0 0.39-0.351 1.145-0.676 1.431-0.273 0.234-0.26 0.234 0.117-0.026 0.39-0.247 0.689-0.872 0.689-1.405 0-0.273 0.26-0.039 0.663 0.598 0.377 0.585 0.52 0.663 0.221 0.117-0.39-0.741-1.405-1.756-1.405-1.405z"></path>
<path d="M7.753 23.246c-0.078 0.182-0.065 0.195 0.065 0.078 0.091-0.091 0.13-0.195 0.091-0.234s-0.117 0.026-0.156 0.156z"></path>
<path d="M7.415 23.74c0 0.104 0.091 0.195 0.195 0.195s0.195-0.052 0.195-0.117c0-0.065-0.091-0.143-0.195-0.195-0.117-0.039-0.195 0-0.195 0.117z"></path>
<path d="M6.166 24.572c-0.898 0.416-1.626 1.184-1.847 1.951-0.208 0.676-0.182 1.548 0.052 2.029 0.104 0.208 0.143 0.273 0.104 0.13-0.377-1.171-0.117-2.393 0.663-3.213 0.416-0.429 0.767-0.624 1.886-1.119 0.182-0.078 0.234-0.143 0.13-0.143-0.104-0.013-0.546 0.156-0.989 0.364z"></path>
<path d="M17.119 28.709c-0.078 0.182-0.065 0.195 0.065 0.078 0.091-0.091 0.13-0.195 0.091-0.234s-0.117 0.026-0.156 0.156z"></path>
<path d="M16.702 29.294l-0.247 0.299 0.299-0.247c0.156-0.143 0.286-0.273 0.286-0.299 0-0.104-0.104-0.026-0.338 0.247z"></path>
<path d="M4.813 29.385c0 0.13 0.247 0.325 0.325 0.26 0.013-0.026-0.039-0.13-0.143-0.221s-0.182-0.104-0.182-0.039z"></path>
<path d="M5.984 29.763c0 0.065 0.078 0.117 0.169 0.117 0.078 0 0.416 0.13 0.741 0.286 0.572 0.26 0.572 0.273 0.195 0.286-0.234 0.013-0.117 0.065 0.325 0.117 0.39 0.052 1.067 0.234 1.496 0.377 0.429 0.156 1.197 0.312 1.691 0.338 0.898 0.052 0.898 0.052 0.26-0.078-0.351-0.065-0.937-0.182-1.288-0.247-0.351-0.078-1.145-0.364-1.756-0.624-1.236-0.559-1.834-0.741-1.834-0.572z"></path>
<path d="M16.052 29.945l-0.247 0.299 0.299-0.247c0.273-0.234 0.351-0.338 0.247-0.338-0.026 0-0.156 0.13-0.299 0.286z"></path>
<path d="M5.554 30.062c0.091 0.091 0.195 0.13 0.234 0.091s-0.026-0.117-0.156-0.156c-0.182-0.078-0.195-0.065-0.078 0.065z"></path>
<path d="M14.712 30.712c-0.325 0.143-0.989 0.312-1.496 0.39s-1.093 0.182-1.314 0.247l-0.39 0.104 0.364 0.013c0.611 0.026 2.328-0.377 3.018-0.702 0.78-0.364 0.624-0.416-0.182-0.052z"></path>
</svg>
<symbol id="icon-triangle" viewBox="0 0 64 32">
<path d="M0.050 0.040c0 0.020 7.19 7.225 15.975 16.010l15.975 15.97 15.975-15.97c8.785-8.785 15.975-15.99 15.975-16.010 0-0.025-14.375-0.040-31.95-0.040s-31.95 0.015-31.95 0.040z"></path>
</symbol>
<symbol id="icon-sort-amount-asc" viewBox="0 0 32 32">
<path d="M10 24v-24h-4v24h-5l7 7 7-7h-5z"></path>
<path d="M14 18h18v4h-18v-4z"></path>
<path d="M14 12h14v4h-14v-4z"></path>
<path d="M14 6h10v4h-10v-4z"></path>
<path d="M14 0h6v4h-6v-4z"></path>
</symbol>
<symbol id="icon-sort-amount-desc" viewBox="0 0 32 32">
<path d="M10 24v-24h-4v24h-5l7 7 7-7h-5z"></path>
<path d="M14 0h18v4h-18v-4z"></path>
<path d="M14 6h14v4h-14v-4z"></path>
<path d="M14 12h10v4h-10v-4z"></path>
<path d="M14 18h6v4h-6v-4z"></path>
</symbol>
<symbol id="icon-phone" viewBox="0 0 32 32">
<path d="M22 20c-2 2-2 4-4 4s-4-2-6-4-4-4-4-6 2-2 4-4-4-8-6-8-6 6-6 6c0 4 4.109 12.109 8 16s12 8 16 8c0 0 6-4 6-6s-6-8-8-6z"></path>
</symbol>
<symbol id="icon-mail" viewBox="0 0 32 32">
<path d="M29 4h-26c-1.65 0-3 1.35-3 3v20c0 1.65 1.35 3 3 3h26c1.65 0 3-1.35 3-3v-20c0-1.65-1.35-3-3-3zM12.461 17.199l-8.461 6.59v-15.676l8.461 9.086zM5.512 8h20.976l-10.488 7.875-10.488-7.875zM12.79 17.553l3.21 3.447 3.21-3.447 6.58 8.447h-19.579l6.58-8.447zM19.539 17.199l8.461-9.086v15.676l-8.461-6.59z"></path>
</symbol>
<symbol id="icon-close" viewBox="0 0 32 32">
<path d="M31.708 25.708c-0-0-0-0-0-0l-9.708-9.708 9.708-9.708c0-0 0-0 0-0 0.105-0.105 0.18-0.227 0.229-0.357 0.133-0.356 0.057-0.771-0.229-1.057l-4.586-4.586c-0.286-0.286-0.702-0.361-1.057-0.229-0.13 0.048-0.252 0.124-0.357 0.228 0 0-0 0-0 0l-9.708 9.708-9.708-9.708c-0-0-0-0-0-0-0.105-0.104-0.227-0.18-0.357-0.228-0.356-0.133-0.771-0.057-1.057 0.229l-4.586 4.586c-0.286 0.286-0.361 0.702-0.229 1.057 0.049 0.13 0.124 0.252 0.229 0.357 0 0 0 0 0 0l9.708 9.708-9.708 9.708c-0 0-0 0-0 0-0.104 0.105-0.18 0.227-0.229 0.357-0.133 0.355-0.057 0.771 0.229 1.057l4.586 4.586c0.286 0.286 0.702 0.361 1.057 0.229 0.13-0.049 0.252-0.124 0.357-0.229 0-0 0-0 0-0l9.708-9.708 9.708 9.708c0 0 0 0 0 0 0.105 0.105 0.227 0.18 0.357 0.229 0.356 0.133 0.771 0.057 1.057-0.229l4.586-4.586c0.286-0.286 0.362-0.702 0.229-1.057-0.049-0.13-0.124-0.252-0.229-0.357z"></path>
</symbol>
<symbol id="icon-menu" viewBox="0 0 32 32">
<path d="M2 6h28v6h-28zM2 14h28v6h-28zM2 22h28v6h-28z"></path>
</symbol>
</defs>
</svg>
<svg version="1.1" xmlns="http://www.w3.org/2000/svg" width="32" height="32" viewBox="0 0 32 32">
<title>instagram</title>
<path d="M16 2.881c4.275 0 4.781 0.019 6.462 0.094 1.563 0.069 2.406 0.331 2.969 0.55 0.744 0.288 1.281 0.638 1.837 1.194 0.563 0.563 0.906 1.094 1.2 1.838 0.219 0.563 0.481 1.412 0.55 2.969 0.075 1.688 0.094 2.194 0.094 6.463s-0.019 4.781-0.094 6.463c-0.069 1.563-0.331 2.406-0.55 2.969-0.288 0.744-0.637 1.281-1.194 1.837-0.563 0.563-1.094 0.906-1.837 1.2-0.563 0.219-1.413 0.481-2.969 0.55-1.688 0.075-2.194 0.094-6.463 0.094s-4.781-0.019-6.463-0.094c-1.563-0.069-2.406-0.331-2.969-0.55-0.744-0.288-1.281-0.637-1.838-1.194-0.563-0.563-0.906-1.094-1.2-1.837-0.219-0.563-0.481-1.413-0.55-2.969-0.075-1.688-0.094-2.194-0.094-6.463s0.019-4.781 0.094-6.463c0.069-1.563 0.331-2.406 0.55-2.969 0.288-0.744 0.638-1.281 1.194-1.838 0.563-0.563 1.094-0.906 1.838-1.2 0.563-0.219 1.412-0.481 2.969-0.55 1.681-0.075 2.188-0.094 6.463-0.094zM16 0c-4.344 0-4.887 0.019-6.594 0.094-1.7 0.075-2.869 0.35-3.881 0.744-1.056 0.412-1.95 0.956-2.837 1.85-0.894 0.888-1.438 1.781-1.85 2.831-0.394 1.019-0.669 2.181-0.744 3.881-0.075 1.713-0.094 2.256-0.094 6.6s0.019 4.887 0.094 6.594c0.075 1.7 0.35 2.869 0.744 3.881 0.413 1.056 0.956 1.95 1.85 2.837 0.887 0.887 1.781 1.438 2.831 1.844 1.019 0.394 2.181 0.669 3.881 0.744 1.706 0.075 2.25 0.094 6.594 0.094s4.888-0.019 6.594-0.094c1.7-0.075 2.869-0.35 3.881-0.744 1.050-0.406 1.944-0.956 2.831-1.844s1.438-1.781 1.844-2.831c0.394-1.019 0.669-2.181 0.744-3.881 0.075-1.706 0.094-2.25 0.094-6.594s-0.019-4.887-0.094-6.594c-0.075-1.7-0.35-2.869-0.744-3.881-0.394-1.063-0.938-1.956-1.831-2.844-0.887-0.887-1.781-1.438-2.831-1.844-1.019-0.394-2.181-0.669-3.881-0.744-1.712-0.081-2.256-0.1-6.6-0.1v0z"></path>
<path d="M16 7.781c-4.537 0-8.219 3.681-8.219 8.219s3.681 8.219 8.219 8.219 8.219-3.681 8.219-8.219c0-4.537-3.681-8.219-8.219-8.219zM16 21.331c-2.944 0-5.331-2.387-5.331-5.331s2.387-5.331 5.331-5.331c2.944 0 5.331 2.387 5.331 5.331s-2.387 5.331-5.331 5.331z"></path>
<path d="M26.462 7.456c0 1.060-0.859 1.919-1.919 1.919s-1.919-0.859-1.919-1.919c0-1.060 0.859-1.919 1.919-1.919s1.919 0.859 1.919 1.919z"></path>
</svg>
<svg version="1.1" xmlns="http://www.w3.org/2000/svg" width="32" height="32" viewBox="0 0 32 32">
<title>linkedin2</title>
<path d="M12 12h5.535v2.837h0.079c0.77-1.381 2.655-2.837 5.464-2.837 5.842 0 6.922 3.637 6.922 8.367v9.633h-5.769v-8.54c0-2.037-0.042-4.657-3.001-4.657-3.005 0-3.463 2.218-3.463 4.509v8.688h-5.767v-18z"></path>
<path d="M2 12h6v18h-6v-18z"></path>
<path d="M8 7c0 1.657-1.343 3-3 3s-3-1.343-3-3c0-1.657 1.343-3 3-3s3 1.343 3 3z"></path>
</svg>
<svg version="1.1" xmlns="http://www.w3.org/2000/svg" width="32" height="32" viewBox="0 0 32 32">
<title>telegram</title>
<path d="M16 0c-8.838 0-16 7.162-16 16s7.162 16 16 16 16-7.163 16-16-7.163-16-16-16zM23.863 10.969l-2.625 12.369c-0.181 0.881-0.712 1.087-1.45 0.681l-4-2.956-1.919 1.869c-0.225 0.219-0.4 0.4-0.8 0.4-0.519 0-0.431-0.194-0.606-0.688l-1.363-4.475-3.956-1.231c-0.856-0.262-0.862-0.85 0.194-1.269l15.412-5.95c0.7-0.319 1.381 0.169 1.113 1.25z"></path>
</svg>